<svg width="4997" height="609" viewBox="0 0 4997 609" fill="none" xmlns="http://www.w3.org/2000/svg">
<path d="M1901.48 3.49229L1720.61 416H1638.39L1465.31 3.49229H1556.18L1683.97 319.364L1811.47 3.49229H1901.48ZM2282.4 3.49229V69.8397H2164.13V416H2087.69V69.8397H1969.42V3.49229H2282.4ZM2368.37 416H2289.9L2465 3.49229H2547.22L2726.06 416H2643.85L2596.83 303.498H2459.81L2486.06 237.151H2569.14L2504.23 82.2438L2368.37 416ZM2776.55 416V3.49229H2961.17C3045.4 3.49229 3087.51 42.243 3087.51 119.744C3087.51 203.784 3029.92 254.651 2914.72 272.343L2903.76 204.265C2972.99 191.765 3007.61 164.361 3007.61 122.052C3007.61 87.8208 2990.49 70.7051 2956.26 70.7051H2852.99V416H2776.55ZM3138.28 416V3.49229H3322.9C3407.14 3.49229 3449.25 42.243 3449.25 119.744C3449.25 203.784 3391.65 254.651 3276.46 272.343L3265.5 204.265C3334.73 191.765 3369.35 164.361 3369.35 122.052C3369.35 87.8208 3352.23 70.7051 3318 70.7051H3214.73V416H3138.28ZM3603.87 416V372.73C3756.76 267.536 3833.2 183.88 3833.2 121.764C3833.2 69.8397 3800.51 43.8777 3735.12 43.8777C3692.81 43.8777 3652.91 54.4548 3615.41 75.609V29.4543C3652.91 10.2232 3692.81 0.60762 3735.12 0.60762C3836.09 0.60762 3886.57 40.993 3886.57 121.764C3886.57 192.919 3817.82 276.574 3680.31 372.73H3886.57V416H3603.87ZM4005.13 208.592C4005.13 319.941 4045.8 375.615 4127.15 375.615C4206.38 375.615 4246 319.941 4246 208.592C4246 98.7825 4206.38 43.8777 4127.15 43.8777C4045.8 43.8777 4005.13 98.7825 4005.13 208.592ZM3948.88 210.323C3948.88 70.5128 4008.3 0.60762 4127.15 0.60762C4243.88 0.60762 4302.25 70.5128 4302.25 210.323C4302.25 349.364 4243.88 418.885 4127.15 418.885C4008.3 418.885 3948.88 349.364 3948.88 210.323ZM4351.58 416V372.73C4504.46 267.536 4580.91 183.88 4580.91 121.764C4580.91 69.8397 4548.21 43.8777 4482.83 43.8777C4440.52 43.8777 4400.62 54.4548 4363.11 75.609V29.4543C4400.62 10.2232 4440.52 0.60762 4482.83 0.60762C4583.79 0.60762 4634.27 40.993 4634.27 121.764C4634.27 192.919 4565.52 276.574 4428.02 372.73H4634.27V416H4351.58ZM4682.16 416V372.73C4835.05 267.536 4911.49 183.88 4911.49 121.764C4911.49 69.8397 4878.8 43.8777 4813.41 43.8777C4771.1 43.8777 4731.2 54.4548 4693.7 75.609V29.4543C4731.2 10.2232 4771.1 0.60762 4813.41 0.60762C4914.37 0.60762 4964.86 40.993 4964.86 121.764C4964.86 192.919 4896.11 276.574 4758.6 372.73H4964.86V416H4682.16Z" fill="white"/>
<path d="M2898.89 595.159H2949.55V588.202H2906.94V519.063H2898.89V595.159ZM2983.45 588.202V559.938H3022.81V553.089H2983.45V526.02H3027.59V519.063H2975.41V595.159H3029.22V588.202H2983.45ZM3075.42 595.159H3083.46V526.02H3110.2V519.063H3048.67V526.02H3075.42V595.159ZM3137.87 513.953C3134.61 513.953 3132.11 516.345 3132.11 519.824C3132.11 522.65 3133.74 524.607 3136.13 525.368L3132.33 541.022H3137.55L3142.22 526.02C3143.2 522.976 3143.64 521.672 3143.64 519.824C3143.64 516.562 3141.24 513.953 3137.87 513.953ZM3196.22 595.812C3215.67 595.812 3224.59 586.245 3224.59 575.048C3224.59 547.327 3177.74 559.938 3177.74 539.065C3177.74 531.456 3183.93 525.259 3197.85 525.259C3204.59 525.259 3212.2 527.325 3218.72 531.564L3221.44 525.15C3215.35 520.911 3206.43 518.41 3197.85 518.41C3178.5 518.41 3169.8 528.086 3169.8 539.283C3169.8 567.438 3216.65 554.611 3216.65 575.483C3216.65 582.984 3210.46 588.963 3196.22 588.963C3186.21 588.963 3176.54 585.049 3171.1 579.723L3167.95 585.919C3173.6 591.789 3184.8 595.812 3196.22 595.812ZM3328.62 595.812C3339.82 595.812 3349.82 592.007 3356.56 584.615L3351.45 579.505C3345.25 585.919 3337.64 588.637 3328.95 588.637C3310.57 588.637 3296.77 575.157 3296.77 557.111C3296.77 539.065 3310.57 525.585 3328.95 525.585C3337.64 525.585 3345.25 528.303 3351.45 534.608L3356.56 529.499C3349.82 522.107 3339.82 518.41 3328.73 518.41C3305.79 518.41 3288.83 534.826 3288.83 557.111C3288.83 579.397 3305.79 595.812 3328.62 595.812ZM3394.25 588.202V559.938H3433.61V553.089H3394.25V526.02H3438.39V519.063H3386.21V595.159H3440.02V588.202H3394.25ZM3471.43 595.159H3522.09V588.202H3479.47V519.063H3471.43V595.159ZM3555.99 588.202V559.938H3595.34V553.089H3555.99V526.02H3600.13V519.063H3547.95V595.159H3601.76V588.202H3555.99ZM3681.11 555.915C3688.07 553.089 3692.74 547.327 3692.74 538.63C3692.74 526.238 3682.96 519.063 3666 519.063H3633.17V595.159H3668.17C3687.2 595.159 3696.76 587.767 3696.76 574.831C3696.76 564.503 3690.89 558.089 3681.11 555.915ZM3665.46 525.694C3677.63 525.694 3684.7 530.368 3684.7 539.5C3684.7 548.632 3677.63 553.306 3665.46 553.306H3641.21V525.694H3665.46ZM3668.07 588.528H3641.21V559.938H3668.07C3681.44 559.938 3688.72 564.286 3688.72 574.178C3688.72 584.18 3681.44 588.528 3668.07 588.528ZM3788.4 595.159L3769.81 569.069C3780.9 565.482 3787.2 557.111 3787.2 545.153C3787.2 528.847 3775.46 519.063 3756.11 519.063H3727.63V595.159H3735.67V571.026H3756.11C3758.28 571.026 3760.24 570.917 3762.2 570.7L3779.59 595.159H3788.4ZM3755.89 564.177H3735.67V526.02H3755.89C3771.11 526.02 3779.16 532.978 3779.16 545.153C3779.16 557.111 3771.11 564.177 3755.89 564.177ZM3875.54 595.159H3884.02L3849.24 519.063H3841.3L3806.51 595.159H3814.88L3824.02 574.831H3866.41L3875.54 595.159ZM3826.95 568.308L3845.21 527.433L3863.48 568.308H3826.95ZM3920.08 595.159H3928.12V526.02H3954.86V519.063H3893.33V526.02H3920.08V595.159ZM3988.26 588.202V559.938H4027.61V553.089H3988.26V526.02H4032.4V519.063H3980.22V595.159H4034.03V588.202H3988.26ZM4121.18 595.159H4129.22V526.02H4155.96V519.063H4094.43V526.02H4121.18V595.159ZM4189.36 588.202V559.938H4228.71V553.089H4189.36V526.02H4233.5V519.063H4181.32V595.159H4235.13V588.202H4189.36ZM4299.16 595.812C4310.36 595.812 4320.36 592.007 4327.1 584.615L4321.99 579.505C4315.8 585.919 4308.19 588.637 4299.49 588.637C4281.12 588.637 4267.31 575.157 4267.31 557.111C4267.31 539.065 4281.12 525.585 4299.49 525.585C4308.19 525.585 4315.8 528.303 4321.99 534.608L4327.1 529.499C4320.36 522.107 4310.36 518.41 4299.27 518.41C4276.33 518.41 4259.37 534.826 4259.37 557.111C4259.37 579.397 4276.33 595.812 4299.16 595.812ZM4412.41 519.063V552.98H4364.8V519.063H4356.75V595.159H4364.8V560.046H4412.41V595.159H4420.35V519.063H4412.41ZM4513.34 519.063V580.81L4464.32 519.063H4457.69V595.159H4465.73V533.412L4514.65 595.159H4521.28V519.063H4513.34ZM4591.89 595.812C4614.71 595.812 4631.78 579.397 4631.78 557.111C4631.78 534.826 4614.71 518.41 4591.89 518.41C4568.84 518.41 4551.88 534.934 4551.88 557.111C4551.88 579.288 4568.84 595.812 4591.89 595.812ZM4591.89 588.637C4573.51 588.637 4559.82 575.266 4559.82 557.111C4559.82 538.957 4573.51 525.585 4591.89 525.585C4610.15 525.585 4623.74 538.957 4623.74 557.111C4623.74 575.266 4610.15 588.637 4591.89 588.637ZM4662.31 595.159H4712.97V588.202H4670.36V519.063H4662.31V595.159ZM4770.61 595.812C4793.44 595.812 4810.51 579.397 4810.51 557.111C4810.51 534.826 4793.44 518.41 4770.61 518.41C4747.56 518.41 4730.61 534.934 4730.61 557.111C4730.61 579.288 4747.56 595.812 4770.61 595.812ZM4770.61 588.637C4752.24 588.637 4738.54 575.266 4738.54 557.111C4738.54 538.957 4752.24 525.585 4770.61 525.585C4788.87 525.585 4802.46 538.957 4802.46 557.111C4802.46 575.266 4788.87 588.637 4770.61 588.637ZM4894.63 582.767C4888.76 587.006 4882.02 588.637 4874.74 588.637C4856.04 588.637 4842.24 575.157 4842.24 557.111C4842.24 538.957 4856.04 525.585 4874.85 525.585C4883.76 525.585 4891.37 528.194 4897.79 534.499L4902.79 529.39C4896.05 522.107 4886.05 518.41 4874.52 518.41C4851.26 518.41 4834.3 534.826 4834.3 557.111C4834.3 579.397 4851.26 595.812 4874.41 595.812C4884.96 595.812 4895.18 592.55 4902.35 586.137V557.111H4894.63V582.767ZM4994.15 519.063H4986.11L4960.02 561.786L4933.93 519.063H4925.34L4955.78 568.852V595.159H4963.71V568.852L4994.15 519.063Z" fill="white"/>
<path fill-rule="evenodd" clip-rule="evenodd" d="M773.761 3.00002H872.101L806.377 115.742L795.416 134.49L711.664 278.211L522.618 602.514H349.484L0 3.00002H172.414L439.077 460.444L628.504 135.548L629.096 134.49L629.269 134.194L406.241 134.194L330.064 3L705.739 3.00002H773.761ZM1271.61 3.00002L1195.01 134.49H1018.74L996.442 172.833L807.015 497.771L745.946 602.514H584.027L726.055 358.874L820.769 196.405L856.826 134.49L915.483 33.9364L933.511 3.00002H1271.61Z" fill="url(#paint0_linear_3_2)"/>
<rect x="1464.89" y="583.099" width="1361.05" height="11.1258" fill="#4A4A4A"/>
<defs>
<linearGradient id="paint0_linear_3_2" x1="635.805" y1="3" x2="635.805" y2="602.514" gradientUnits="userSpaceOnUse">
<stop stop-color="#AE1C20"/>
<stop offset="1" stop-color="#F02B2B"/>
</linearGradient>
</defs>
</svg>
